<?xml version="1.0" encoding="UTF-8" standalone="no"?>
<!-- Created with Inkscape (http://www.inkscape.org/) -->
<svg
   xmlns:dc="http://purl.org/dc/elements/1.1/"
   xmlns:cc="http://web.resource.org/cc/"
   xmlns:rdf="http://www.w3.org/1999/02/22-rdf-syntax-ns#"
   xmlns:svg="http://www.w3.org/2000/svg"
   xmlns="http://www.w3.org/2000/svg"
   xmlns:sodipodi="http://sodipodi.sourceforge.net/DTD/sodipodi-0.dtd"
   xmlns:inkscape="http://www.inkscape.org/namespaces/inkscape"
   version="1.0"
   width="10"
   height="11"
   id="svg2064"
   sodipodi:version="0.32"
   inkscape:version="0.45"
   sodipodi:docname="kotva.svg"
   inkscape:output_extension="org.inkscape.output.svg.inkscape"
   sodipodi:docbase="/home/egg"
   sodipodi:modified="true">
  <metadata
     id="metadata15">
    <rdf:RDF>
      <cc:Work
         rdf:about="">
        <dc:format>image/svg+xml</dc:format>
        <dc:type
           rdf:resource="http://purl.org/dc/dcmitype/StillImage" />
      </cc:Work>
    </rdf:RDF>
  </metadata>
  <sodipodi:namedview
     inkscape:window-height="753"
     inkscape:window-width="1024"
     inkscape:pageshadow="2"
     inkscape:pageopacity="0.0"
     guidetolerance="10.0"
     gridtolerance="10.0"
     objecttolerance="10.0"
     borderopacity="1.0"
     bordercolor="#666666"
     pagecolor="#ffffff"
     id="base"
     inkscape:zoom="1.2432166"
     inkscape:cx="125.5"
     inkscape:cy="152.02499"
     inkscape:window-x="0"
     inkscape:window-y="0"
     inkscape:current-layer="svg2064" />
  <defs
     id="defs2066" />
  <g
     id="g2170">
    <path
       id="path1919"
       d="m5.04229,0.02451c-0.56202,0 -1.01754,0.43861 -1.01738,0.97901c-0.00017,0.54041 0.45535,0.97901 1.01738,0.97901c0.56202,0 1.01754,-0.4386 1.01738,-0.97901c0.00017,-0.54041 -0.45536,-0.97901 -1.01738,-0.97901zm-0.02273,0.476c0.27283,0 0.49456,0.21226 0.49448,0.47458c0.00008,0.26233 -0.22165,0.47459 -0.49448,0.47459c-0.27283,0 -0.49456,-0.21226 -0.49448,-0.47459c-0.00008,-0.26233 0.22165,-0.47458 0.49448,-0.47458z"
       style="fill:#247FCD;fill-opacity:1;fill-rule:nonzero;stroke:none;stroke-width:10;stroke-miterlimit:4;stroke-dasharray:none;stroke-opacity:1" />
    <path
       d="m4.66175,1.7889c-0.04788,-0.00085 0,0.09434 0,0.41305l0,0.41305l-0.9949,-0.0139c-0.78219,-0.01092 -1.01064,-0.00083 -1.06853,0.04721c-0.09256,0.07682 -0.10712,0.59464 -0.01679,0.59722l2.03474,-0.00475c0.00228,0.48603 0.0086,0.97211 0.0024,1.45814c-0.02294,1.00396 -0.04055,2.00801 -0.04988,3.01219c-0.00412,0.54384 -0.02481,1.0656 -0.04597,1.15946c-0.07975,0.35376 -0.30286,0.40182 -0.99053,0.21332c-0.71515,-0.19602 -1.60342,-0.63181 -1.75292,-0.85998c-0.11885,-0.1814 -0.13741,-0.33694 -0.05151,-0.43186c0.04283,-0.04732 0.1065,-0.07505 0.14151,-0.06162c0.0387,0.01485 0.0794,-0.01753 0.10386,-0.08264c0.08608,-0.22918 -0.20124,-0.56789 -0.76714,-0.90439c-0.13754,-0.08178 -0.36262,-0.25742 -0.50016,-0.39031c-0.14432,-0.13943 -0.27159,-0.22783 -0.30096,-0.20903c-0.09135,0.05852 -0.27826,0.48122 -0.33569,0.75918c-0.11545,0.55877 0.03102,1.38326 0.3032,1.70673c0.14368,0.17075 0.22383,0.17224 0.25732,0.00478c0.05901,-0.29507 0.42628,-0.20995 0.82636,0.19151c0.31664,0.31773 0.9196,0.77834 1.1822,0.90309c0.10003,0.04753 0.24327,0.12479 0.31829,0.1717c0.07502,0.04691 0.3001,0.14128 0.50016,0.20971c0.41913,0.14336 0.90995,0.39717 1.10429,0.57104c0.07383,0.06606 0.18534,0.15358 0.24779,0.1945c0.10925,0.07158 0.11647,0.06993 0.19073,-0.04338c0.15457,-0.23591 0.4212,-0.44234 0.82508,-0.63882c0.22699,-0.11043 0.44682,-0.20077 0.48851,-0.20077c0.0886,0 0.83636,-0.33081 1.28681,-0.56929c0.35299,-0.18688 0.51199,-0.29953 0.90635,-0.64208c0.44521,-0.38673 0.67046,-0.43041 0.90411,-0.17533l0.14588,0.15926l0.09365,-0.10242c0.16945,-0.18531 0.23181,-0.37163 0.26457,-0.79043c0.02505,-0.32024 0.01443,-0.49411 -0.04717,-0.77204c-0.09733,-0.43918 -0.26054,-0.81451 -0.38257,-0.87982c-0.07705,-0.04123 -0.10327,-0.02929 -0.16912,0.077c-0.11449,0.18483 -0.27446,0.33018 -0.58255,0.52931c-0.3689,0.23843 -0.59151,0.48424 -0.65996,0.7287c-0.06612,0.23615 -0.03602,0.32187 0.08944,0.25473c0.13686,-0.07325 0.22603,-0.05327 0.27876,0.06245c0.07423,0.16293 -0.03729,0.29399 -0.46832,0.55039c-0.73618,0.43792 -1.72328,0.79658 -2.19232,0.79658c-0.22133,0 -0.42916,-0.08561 -0.46245,-0.19049c-0.01605,-0.05058 -0.01687,-0.64736 -0.00184,-1.32617c0.01505,-0.67883 0.03938,-1.9399 0.05408,-2.80239c0.01471,-0.86249 0.03362,-1.57932 0.04204,-1.59295c0.00842,-0.01363 0.4773,-0.02048 1.04195,-0.01521c1.1715,0.01091 1.10987,0.03293 1.10017,-0.393l-0.0057,-0.25008c-0.69962,-0.04906 -1.41582,0.04283 -2.1125,-0.05122c-0.01315,-0.01315 -0.0269,-0.17521 -0.03056,-0.36012l-0.00665,-0.4168l-0.73759,-0.01304z"
       style="fill:#247FCD"
       id="path1881" />
  </g>
</svg>
