<?xml version="1.0" encoding="utf-8"?>
<!-- Generator: Adobe Illustrator 16.0.3, SVG Export Plug-In . SVG Version: 6.00 Build 0)  -->
<!DOCTYPE svg PUBLIC "-//W3C//DTD SVG 1.1//EN" "http://www.w3.org/Graphics/SVG/1.1/DTD/svg11.dtd">
<svg version="1.1" id="Layer_1" xmlns="http://www.w3.org/2000/svg" xmlns:xlink="http://www.w3.org/1999/xlink" x="0px" y="0px"
	 width="30px" height="30px" viewBox="0 0 30 30" enable-background="new 0 0 30 30" xml:space="preserve">
<g>
	<g>
		<path fill="#4481BD" d="M29,25.291C29,27.279,27.273,29,25.287,29H4.49C2.5,29,1,27.279,1,25.291V4.494C1,2.505,2.5,1,4.49,1
			h20.797C27.273,1,29,2.505,29,4.494V25.291z"/>
		<path fill="#FFFFFF" d="M25.287,30H4.49C2.012,30,0,27.887,0,25.291V4.494C0,1.932,1.928,0,4.49,0h20.797
			C27.884,0,30,2.016,30,4.494v20.797C30,27.844,27.84,30,25.287,30z M4.49,2C3.045,2,2,3.049,2,4.494v20.797
			C2,26.785,3.115,28,4.49,28h20.797C26.73,28,28,26.734,28,25.291V4.494C28,3.119,26.781,2,25.287,2H4.49z"/>
	</g>
	<path fill-rule="evenodd" clip-rule="evenodd" fill="#FFFFFF" d="M21.996,12V8.75c0-1.688-0.984-2.75-3-2.75h-4h-4
		c-2.016,0-3,1.062-3,2.75V12h-1v3h1v7h1v3h2v-3h1h3h3h1v3h2v-3h1v-7h1v-3H21.996z M12.996,7h4v1h-4V7z M11.996,20h-3v-2h3V20z
		 M20.996,20h-3v-2h3V20z M20.996,15h-1h-1h-4h-4h-1h-1v-5c0.08-0.537,0.496-0.892,1-1h5h5c0.504,0.108,0.92,0.463,1,1V15z"/>
</g>
</svg>
