<?xml version="1.0" encoding="UTF-8"?>
<!DOCTYPE svg PUBLIC "-//W3C//DTD SVG 1.1//EN" "http://www.w3.org/Graphics/SVG/1.1/DTD/svg11.dtd">
<!-- Creator: CorelDRAW X7 -->
<svg xmlns="http://www.w3.org/2000/svg" xml:space="preserve" width="295.099mm" height="350.405mm" version="1.1" style="shape-rendering:geometricPrecision; text-rendering:geometricPrecision; image-rendering:optimizeQuality; fill-rule:evenodd; clip-rule:evenodd"
viewBox="0 0 15556 18472"
 xmlns:xlink="http://www.w3.org/1999/xlink">
 <defs>
  <style type="text/css">
   <![CDATA[
    .str0 {stroke:#727271;stroke-width:10.543}
    .str1 {stroke:#727271;stroke-width:5.2715}
    .str4 {stroke:#727271;stroke-width:4.01688}
    .str2 {stroke:#727271;stroke-width:5.2715;stroke-linejoin:round}
    .str3 {stroke:#727271;stroke-width:5.2715;stroke-linecap:round;stroke-linejoin:round}
    .fil3 {fill:none}
    .fil10 {fill:#FEFEFE}
    .fil9 {fill:#F1F1F1}
    .fil2 {fill:#EBECEC}
    .fil1 {fill:#D9DADA}
    .fil0 {fill:#D9DADA}
    .fil6 {fill:#C5C6C6}
    .fil4 {fill:#B2B3B3}
    .fil5 {fill:#9D9E9E}
    .fil7 {fill:#898989}
    .fil8 {fill:#727271}
   ]]>
  </style>
 </defs>
 <g id="Слой_x0020_1">
  <metadata id="CorelCorpID_0Corel-Layer"/>
  <polygon class="fil0 str0" points="271,15372 116,16052 7,16140 131,16319 195,16279 114,16154 225,16057 365,15389 "/>
  <polygon class="fil0 str0" points="258,16675 1732,18465 3515,17353 3913,17067 3852,16992 3467,17272 1768,18345 336,16612 "/>
  <polygon class="fil0 str0" points="4042,16841 4095,16909 4958,16257 6354,15552 7609,15291 7585,15180 6304,15465 4898,16183 "/>
  <polygon class="fil0 str0" points="8018,15108 8039,15208 9260,14954 9240,14864 "/>
  <polygon class="fil0 str0" points="9523,14823 9541,14918 11325,14661 11308,14577 "/>
  <polygon class="fil0 str0" points="11559,14538 11574,14626 12670,14491 13746,14420 13737,14322 12648,14394 "/>
  <polygon class="fil0 str0" points="14031,14336 14034,14423 15548,14325 15027,13219 14244,10904 14147,10935 14946,13247 15404,14236 "/>
  <polygon class="fil1 str0" points="1410,12291 330,15142 429,15167 1506,12327 "/>
  <polygon class="fil2 str1" points="1501,12048 1600,12086 3090,8218 3004,8190 "/>
  <polygon class="fil2 str1" points="3042,7826 3101,7842 4345,4400 4267,4367 "/>
  <polygon class="fil0 str1" points="7591,2588 10037,4832 10141,4709 7683,2496 "/>
  <polygon class="fil0 str1" points="10283,4983 12618,7219 12693,7141 10348,4909 "/>
  <polygon class="fil0 str0" points="12886,7485 13173,7982 14024,10576 14113,10543 13263,7934 12961,7418 "/>
  <polygon class="fil3 str2" points="2978,8508 3446,8633 3151,9797 2968,9745 3203,8816 2894,8726 "/>
  <polygon class="fil3 str2" points="2899,8953 3146,9041 3203,8816 2894,8726 "/>
  <polygon class="fil4 str2" points="3444,8847 3166,9925 3151,9797 3446,8633 "/>
  <polyline class="fil3 str1" points="2978,8508 3079,8633 2894,8726 "/>
  <polyline class="fil3 str1" points="3446,8633 3302,8696 3079,8633 "/>
  <polyline class="fil3 str1" points="3203,8816 3321,8739 3301,8695 "/>
  <line class="fil3 str1" x1="3060" y1="9771" x2="3321" y2= "8739" />
  <polygon class="fil5 str1" points="2899,8953 2461,10160 2357,10120 2894,8726 "/>
  <polygon class="fil0" points="3256,8012 3328,8030 3332,8602 3259,8583 "/>
  <polygon class="fil6 str2" points="3407,8365 3332,8602 3328,8030 3416,7725 3415,7581 3426,7547 3431,7471 3456,7448 3474,7383 3482,7443 3530,7264 3552,7826 3501,8084 3490,7870 3437,8069 3405,8190 "/>
  <polygon class="fil5 str2" points="3090,8218 3097,8454 3066,8528 2978,8508 "/>
  <path class="fil0 str1" d="M973 7758l273 99 0 -57c54,-17 114,-6 179,53l1 58 731 184 0 -235 -1169 -177 -15 75z"/>
  <polygon class="fil6 str1" points="2352,7101 2343,7132 2157,7771 2512,7846 2512,7739 2565,7558 2595,7452 2669,7185 "/>
  <polygon class="fil2 str1" points="995,7650 2157,7814 2157,7771 2226,7532 1088,7298 "/>
  <polygon class="fil4 str1" points="1106,7230 2246,7465 2226,7532 1088,7298 "/>
  <g id="_823008960">
   <path class="fil2 str1" d="M134 7290l0 164c49,152 170,242 365,267l0 -55c60,-27 117,-8 172,48l5 67 278 70 -7 -168 -636 -173c-92,-34 -149,-111 -177,-220z"/>
   <polygon class="fil7 str2" points="1135,6952 947,7659 954,7851 991,7666 1091,7292 1133,7134 "/>
   <path class="fil3 str1" d="M162 6940c-40,97 -41,196 3,297 44,86 137,146 279,181l307 75 138 33 55 13 158 -599 -566 -158c-92,-8 -146,-10 -224,17 -64,24 -116,76 -150,141z"/>
   <path class="fil6 str1" d="M898 7490l-9 36 55 13 158 -599 -542 -151c-153,-51 -303,4 -378,117 -84,170 -26,346 133,434l-71 -134 60 -165 126 -57 558 148 -90 358zm75 -544l62 20 1 63 -59 -20 -4 -63zm-134 -40l68 21 2 63 -66 -21 -4 -63zm-141 -43l76 24 1 63 -72 -24 -5 -63zm-136 -36l73 22 1 57 -73 -22 -1 -57zm-137 -18l1 60 64 6 -3 -63 -62 -3zm-120 88l0 -64 49 -21 1 64 -50 21z"/>
   <path class="fil5 str1" d="M995 7103l-97 387 -138 -34 63 -263c-57,-51 -112,-69 -166,-57l-3 59c-272,-80 -400,-73 -339,145 -185,-145 -96,-410 133,-382l547 145z"/>
   <path class="fil0 str2" d="M168 7392l-5 -103 41 46c1,24 3,90 4,113l34 25 0 -102 73 43 1 97 76 21 -4 -90 72 21 4 90 77 19 -3 -90 64 18 3 93 75 17 -6 -89 67 17 6 92 70 18 -3 -98 66 15 4 101 63 17 0 -24 188 -707 -33 -12 -158 599 -55 -13 -473 -115c-290,-85 -339,-285 -234,-505 -66,81 -96,306 -14,486z"/>
  </g>
  <polygon class="fil0 str1" points="2157,7771 2229,7786 2229,8256 2157,8236 "/>
  <polygon class="fil2 str1" points="2229,7786 2456,7834 2457,8332 2229,8256 "/>
  <polygon class="fil0 str1" points="2456,7834 2512,7846 2512,8351 2457,8332 "/>
  <polygon class="fil0 str1" points="2512,7799 2584,7818 2584,8434 2512,8415 "/>
  <polygon class="fil2 str1" points="2584,7818 3256,8012 3259,8583 3066,8528 3097,8454 3090,8218 3004,8190 2877,8518 2584,8434 "/>
  <polygon class="fil8 str1" points="3501,8084 3490,7870 3437,8069 "/>
  <polygon class="fil6 str1" points="2531,7692 2534,7770 3312,7996 3310,7908 "/>
  <polygon class="fil4 str3" points="3397,7624 3397,7717 3312,7996 3310,7908 "/>
  <polygon class="fil6 str1" points="3527,7191 3530,7269 3482,7443 3474,7383 "/>
  <polygon class="fil0 str1" points="2722,7005 2806,7013 2636,7629 3253,7791 3227,7885 2531,7692 "/>
  <polygon class="fil0 str1" points="3273,7064 3462,7103 3443,7179 3343,7165 3311,7118 3264,7103 "/>
  <polygon class="fil0 str1" points="3267,7745 3333,7832 3426,7547 3328,7530 "/>
  <polygon class="fil0 str1" points="3438,7194 3523,7205 3456,7448 3362,7436 "/>
  <polygon class="fil2 str1" points="2722,7005 2770,6828 2806,7013 "/>
  <polygon class="fil5 str1" points="2836,6917 2806,7013 2770,6828 "/>
  <polygon class="fil2 str1" points="2582,7544 2620,7718 2531,7692 "/>
  <polygon class="fil5 str1" points="2642,7608 2620,7718 2582,7544 "/>
  <polygon class="fil4 str1" points="2749,7485 2748,7612 3203,7743 3203,7609 3088,7575 2972,7466 2847,7510 "/>
  <polygon class="fil4 str1" points="3311,7118 3335,7154 3203,7743 3203,7609 3242,7453 3244,7289 3286,7298 "/>
  <polygon class="fil6 str1" points="3362,7436 3344,7454 3335,7536 3426,7547 3431,7471 3456,7448 "/>
  <polygon class="fil2 str1" points="3478,7033 3438,7194 3523,7205 "/>
  <polygon class="fil5 str1" points="3479,7034 3544,7127 3523,7205 "/>
  <polygon class="fil2 str1" points="3268,7739 3227,7885 3310,7908 "/>
  <polygon class="fil5 str1" points="3267,7740 3333,7832 3310,7908 "/>
  <polygon class="fil5 str1" points="3552,7826 3569,7762 3544,7127 3527,7191 "/>
  <polygon class="fil9 str1" points="2806,7013 2636,7629 3253,7791 3271,7735 3337,7536 3344,7454 3362,7436 3443,7179 3335,7154 3203,7743 2748,7612 2749,7485 2797,7325 "/>
  <polygon class="fil2 str1" points="2817,7329 2891,7445 2895,7234 2863,7118 2818,7103 "/>
  <polygon class="fil0 str1" points="2982,7184 3061,7273 3070,7506 2976,7432 2891,7445 2895,7234 "/>
  <polygon class="fil4 str1" points="3145,7189 3215,7209 3217,7426 3070,7506 3061,7273 "/>
  <polygon class="fil6 str1" points="3216,7305 3215,7209 3231,7054 3264,7103 3248,7253 "/>
  <polygon class="fil2 str1" points="2818,7103 2817,7329 2891,7445 2976,7432 3070,7506 3217,7426 3216,7305 3248,7253 3242,7453 3203,7609 3088,7575 2972,7466 2847,7510 2749,7485 2797,7325 2803,7050 2806,7013 "/>
  <polygon class="fil0 str1" points="2871,6907 2836,6917 2806,7013 2818,7103 2863,7118 2895,7234 2982,7184 3061,7273 3145,7189 3215,7209 3231,7054 3264,7103 3271,7016 3214,6893 3187,6892 3218,6986 3214,7045 3194,7035 3188,7154 3130,7145 3064,7222 2983,7134 2916,7170 2889,7075 2853,7072 2846,7009 "/>
  <polygon class="fil10 str1" points="2871,6907 3044,6451 2916,7170 2889,7075 2853,7072 2846,7009 "/>
  <polygon class="fil0 str1" points="3064,7222 2983,7134 2916,7170 3044,6451 "/>
  <polygon class="fil4 str1" points="3188,7154 3130,7145 3064,7222 3044,6451 "/>
  <polygon class="fil0 str1" points="3218,6986 3214,7045 3194,7035 3188,7154 3044,6451 "/>
  <polygon class="fil0 str1" points="3020,6404 3066,6404 3066,6480 3020,6480 "/>
  <polygon class="fil0 str1" points="3311,7118 3286,7298 3244,7289 3264,7103 "/>
  <polygon class="fil5 str1" points="4379,4639 3501,7065 3478,7035 3461,7103 3375,7085 4345,4400 "/>
  <g id="_822545536">
   <polygon class="fil6 str1" points="4161,4144 4156,4442 4235,4481 4273,4375 4345,4400 4396,4227 "/>
   <polygon class="fil2 str1" points="4107,4543 4192,4580 4235,4481 4156,4442 "/>
   <polygon class="fil2 str2" points="4341,3541 4261,3745 4459,3825 4541,3622 "/>
   <polygon class="fil2 str1" points="4137,4058 4433,4163 4455,4112 4212,4022 4217,3966 4266,3840 4285,3844 4280,3763 4257,3772 "/>
   <polygon class="fil2 str2" points="4242,3989 4477,4075 4460,3906 4285,3842 "/>
   <polygon class="fil6 str1" points="4459,3825 4460,3906 4285,3842 4280,3752 "/>
   <polygon class="fil4 str2" points="4541,3622 4546,3701 4460,3906 4459,3825 "/>
   <polygon class="fil5 str2" points="4477,4075 4588,3820 4546,3701 4460,3906 "/>
   <polygon class="fil6 str1" points="4433,4163 4396,4227 4139,4136 4137,4058 "/>
   <path class="fil6 str1" d="M4301 3942c5,-23 36,-9 35,15l0 39 -35 -14 0 -40z"/>
   <path class="fil6 str1" d="M4379 3970c4,-23 35,-10 35,15l0 39 -35 -14 0 -40z"/>
   <polygon class="fil7 str1" points="4508,3966 4525,3917 4510,3895 "/>
   <polygon class="fil7 str1" points="4537,3894 4553,3845 4539,3823 "/>
   <polygon class="fil5 str2" points="4408,3762 4405,3529 4474,3728 "/>
   <polygon class="fil4 str2" points="4341,3736 4405,3529 4408,3762 "/>
   <polygon class="fil10 str2" points="4325,3636 4405,3529 4341,3736 "/>
   <polygon class="fil4 str2" points="4474,3728 4489,3636 4405,3529 "/>
  </g>
  <g id="_822492832">
   <polygon class="fil0 str2" points="7242,2259 7238,2545 7558,2842 7558,2547 "/>
   <polygon class="fil5 str2" points="7783,2590 7858,2514 7858,2225 7558,2547 7558,2842 7591,2810 7591,2588 7683,2496 "/>
   <polygon class="fil4 str1" points="7997,2018 7997,2303 7858,2442 7858,2225 7841,2209 7833,2200 7841,2191 "/>
   <polygon class="fil2 str2" points="7651,1864 7737,1779 7997,2018 7833,2200 7682,2076 7678,1969 7650,1953 "/>
   <polygon class="fil2 str2" points="7417,2134 7417,2274 7502,2344 7502,2205 "/>
   <polygon class="fil6 str2" points="7606,2343 7502,2343 7502,2205 7606,2205 "/>
   <polygon class="fil5 str2" points="7681,2120 7606,2205 7606,2343 7681,2257 "/>
   <polygon class="fil2 str2" points="7440,1952 7440,2080 7507,2140 7507,2012 "/>
   <polygon class="fil6 str2" points="7594,2139 7507,2140 7507,2012 7594,2012 "/>
   <polygon class="fil4 str2" points="7650,1953 7594,2012 7594,2139 7653,2074 "/>
   <polygon class="fil2 str2" points="7550,1655 7464,1845 7464,1936 "/>
   <polygon class="fil0 str2" points="7517,1991 7464,1936 7550,1655 "/>
   <polygon class="fil5 str2" points="7581,1991 7517,1991 7550,1655 "/>
   <polygon class="fil4 str2" points="7630,1931 7581,1991 7550,1655 "/>
   <polygon class="fil2 str2" points="7628,1839 7630,1931 7550,1655 "/>
   <polygon class="fil2 str1" points="7416,2015 7303,2143 7304,2240 7251,2240 7242,2259 7558,2547 7858,2225 7776,2153 7776,2256 7589,2466 7526,2456 7318,2257 7318,2180 7416,2064 "/>
   <path class="fil10 str2" d="M7416 2064l-98 116 0 77 208 199 0 -58c9,-39 57,-30 63,0l0 68 187 -210 0 -103 -94 -77 -1 181 -75 86 -103 0 -86 -69 -1 -210z"/>
   <polygon class="fil0 str2" points="7416,2064 7416,1986 7440,1952 7440,2080 7507,2140 7594,2139 7653,2074 7650,1953 7678,1969 7681,2120 7606,2205 7502,2205 7417,2134 "/>
   <polygon class="fil0 str2" points="7464,1845 7437,1866 7440,1952 7507,2012 7594,2012 7650,1953 7651,1864 7628,1839 7630,1931 7581,1991 7517,1991 7464,1936 "/>
   <polygon class="fil0 str1" points="7741,2014 7997,2018 7737,1779 "/>
   <path class="fil4 str2" d="M7526 2456l0 36c16,35 54,29 63,0l0 -94c5,56 -72,52 -63,0l0 58z"/>
   <path class="fil6 str2" d="M7251 2206l0 34c15,29 44,26 53,0l0 -88c0,42 -53,39 -53,0l0 54z"/>
   <path class="fil0 str1" d="M7278 2125c13,0 26,12 26,27 0,15 -11,30 -25,30 -15,0 -28,-12 -28,-30 2,-20 13,-26 27,-27z"/>
   <path class="fil0 str1" d="M7556 2372c8,1 29,3 33,26 4,23 -12,41 -31,41 -17,0 -32,-9 -32,-38 1,-20 17,-29 30,-29z"/>
   <path class="fil6 str2" d="M7789 2189l0 31c14,27 41,25 50,0l0 -81c0,38 -50,36 -50,0l0 50z"/>
   <path class="fil0 str1" d="M7814 2113c13,0 25,12 25,25 0,14 -10,29 -24,29 -14,0 -26,-12 -26,-29 1,-18 12,-24 25,-25z"/>
  </g>
  <polygon class="fil2 str1" points="7591,2810 10037,5038 10037,4832 7591,2588 "/>
  <ellipse class="fil2 str1" cx="5750" cy="457" rx="235" ry="230"/>
  <ellipse class="fil3 str1" cx="5750" cy="405" rx="172" ry="176"/>
  <path class="fil6 str1" d="M5983 492c1,11 2,22 2,34 0,127 -105,230 -235,230 -129,0 -234,-103 -234,-230 0,-12 1,-23 2,-34 17,111 114,197 232,197 118,0 216,-86 233,-197z"/>
  <path class="fil4 str1" d="M5976 822c16,144 -72,262 -226,262 -153,0 -241,-123 -226,-262 28,87 119,151 226,151 108,0 199,-64 226,-151z"/>
  <path class="fil0 str1" d="M5523 582l1 240c23,53 56,94 101,119l0 -222c-59,-38 -90,-85 -102,-137z"/>
  <path class="fil6 str1" d="M5792 752l0 218c-56,7 -112,2 -167,-29l0 -222c46,31 102,42 167,33z"/>
  <path class="fil0 str1" d="M5976 822c-9,27 -22,51 -41,71l-109 -150c70,-23 113,-70 142,-131l8 210z"/>
  <path class="fil2 str1" d="M5750 756l-1162 3064 0 0 -111 255 -22 38 -33 68 -26 46 -51 173 407 59 1320 -2540 516 535 -1076 3277 312 0 1414 -3186 4 -286 9 -19 0 -75 -1425 -1422c-24,8 -49,12 -76,13z"/>
  <polygon class="fil6 str1" points="4752,4459 5924,1238 6072,1919 5131,4455 "/>
  <polygon class="fil0 str4" points="5792,752 5924,1238 6960,2309 5824,5731 6144,5731 7238,2545 7242,2259 7251,2240 7251,2165 5826,743 "/>
  <polygon class="fil5 str1" points="5258,4398 6077,2214 6072,1919 5131,4455 5165,4464 5201,4383 "/>
  <polygon class="fil6 str1" points="6516,2697 6077,2214 6072,1919 6588,2454 "/>
  <path class="fil0 str1" d="M5618 518l73 -264 52 7 7 320c-55,0 -99,-22 -132,-63z"/>
  <path class="fil6 str1" d="M5895 501c-38,52 -86,78 -145,80l-7 -320 44 -7 108 247z"/>
  <path class="fil2 str1" d="M5580 377l93 -129 18 6 -73 264c-30,-39 -48,-83 -38,-141z"/>
  <path class="fil2 str1" d="M5787 254l17 -16 117 139c5,57 -4,97 -26,124l-108 -247z"/>
  <polygon class="fil4 str1" points="5742,160 5743,261 5787,254 5786,156 "/>
  <polygon class="fil6 str1" points="5742,160 5743,261 5691,254 5691,155 "/>
  <polygon class="fil0 str1" points="5804,105 5786,160 5787,254 5804,238 "/>
  <polygon class="fil2 str1" points="5669,109 5691,155 5691,254 5669,242 "/>
  <polygon class="fil6 str1" points="5741,9 5804,105 5786,156 5742,160 "/>
  <polygon class="fil2 str1" points="5741,9 5669,109 5691,155 5742,160 "/>
  <polygon class="fil10 str1" points="995,7650 988,7683 2157,7860 2157,7814 "/>
  <polygon class="fil10 str1" points="4285,3842 4266,3840 4217,3966 4212,4022 4455,4112 4477,4075 4242,3989 "/>
 </g>
</svg>
