<?xml version="1.0" encoding="utf-8"?>
<!-- Generator: Adobe Illustrator 16.0.3, SVG Export Plug-In . SVG Version: 6.00 Build 0)  -->
<!DOCTYPE svg PUBLIC "-//W3C//DTD SVG 1.1//EN" "http://www.w3.org/Graphics/SVG/1.1/DTD/svg11.dtd">
<svg version="1.1" id="Layer_1" xmlns="http://www.w3.org/2000/svg" xmlns:xlink="http://www.w3.org/1999/xlink" x="0px" y="0px"
	 width="30px" height="30px" viewBox="0 0 30 30" enable-background="new 0 0 30 30" xml:space="preserve">
<g>
	<g>
		<path fill="#369972" d="M15,29.5C7.005,29.5,0.5,22.995,0.5,15S7.005,0.5,15,0.5S29.5,7.005,29.5,15S22.995,29.5,15,29.5z"/>
		<g>
			<path fill="#FFFFFF" d="M15,1c7.732,0,14,6.269,14,14s-6.268,14-14,14C7.267,29,1,22.731,1,15S7.267,1,15,1 M15,0
				C6.729,0,0,6.729,0,15c0,8.271,6.729,15,15,15s15-6.729,15-15C30,6.729,23.271,0,15,0L15,0z"/>
		</g>
	</g>
	<rect x="11" y="23" fill="#FFFFFF" width="8" height="1"/>
	<rect x="14" y="13" fill="#FFFFFF" width="2" height="11"/>
	<line fill="#FFFFFF" stroke="#FFFFFF" stroke-miterlimit="10" x1="15" y1="19" x2="11" y2="14"/>
	<line fill="#FFFFFF" stroke="#FFFFFF" stroke-miterlimit="10" x1="15" y1="20" x2="18" y2="18"/>
	<circle fill="#FFFFFF" cx="10.5" cy="12.5" r="2.5"/>
	<circle fill="#FFFFFF" cx="18" cy="12" r="4"/>
	<circle fill="#FFFFFF" cx="13.5" cy="9.5" r="3.5"/>
	<rect x="12" y="12" fill="#FFFFFF" width="3" height="2"/>
</g>
</svg>
