<?xml version="1.0" encoding="utf-8"?>
<!-- Generator: Adobe Illustrator 16.0.3, SVG Export Plug-In . SVG Version: 6.00 Build 0)  -->
<!DOCTYPE svg PUBLIC "-//W3C//DTD SVG 1.1//EN" "http://www.w3.org/Graphics/SVG/1.1/DTD/svg11.dtd">
<svg version="1.1" id="Layer_1" xmlns="http://www.w3.org/2000/svg" xmlns:xlink="http://www.w3.org/1999/xlink" x="0px" y="0px"
	 width="30px" height="30px" viewBox="0 0 30 30" enable-background="new 0 0 30 30" xml:space="preserve">
<g>
	<g>
		<path fill="#4481BD" d="M29,25.291C29,27.279,27.273,29,25.287,29H4.49C2.5,29,1,27.279,1,25.291V4.494C1,2.505,2.5,1,4.49,1
			h20.797C27.273,1,29,2.505,29,4.494V25.291z"/>
	</g>
	<g>
		<path fill="#FFFFFF" d="M25.287,30H4.49C2.012,30,0,27.887,0,25.291V4.494C0,1.932,1.928,0,4.49,0h20.797
			C27.884,0,30,2.016,30,4.494v20.797C30,27.844,27.84,30,25.287,30z M4.49,2C3.045,2,2,3.049,2,4.494v20.797
			C2,26.785,3.115,28,4.49,28h20.797C26.73,28,28,26.734,28,25.291V4.494C28,3.119,26.781,2,25.287,2H4.49z"/>
	</g>
</g>
<g>
	<rect x="11" y="12" fill="#FFFFFF" width="8" height="2"/>
</g>
<g>
	<path fill="#FFFFFF" d="M15.025,11.918c-1.46,0-2.648-1.188-2.648-2.648s1.188-2.648,2.648-2.648c1.46,0,2.648,1.188,2.648,2.648
		S16.485,11.918,15.025,11.918z M15.025,8.622c-0.357,0-0.648,0.291-0.648,0.648s0.291,0.648,0.648,0.648s0.648-0.291,0.648-0.648
		S15.383,8.622,15.025,8.622z"/>
</g>
<g>
	<path fill="#FFFFFF" d="M14.995,21.486C11.687,21.486,8.996,19,8.996,16h2c0,2,1.794,3.486,3.999,3.486
		c2.206,0,4.001-1.486,4.001-3.486h2C20.996,19,18.304,21.486,14.995,21.486z"/>
</g>
<g>
	<rect x="14" y="11" fill="#FFFFFF" width="2" height="12"/>
</g>
</svg>
