<?xml version="1.0" encoding="utf-8"?>
<!-- Generator: Adobe Illustrator 16.0.3, SVG Export Plug-In . SVG Version: 6.00 Build 0)  -->
<!DOCTYPE svg PUBLIC "-//W3C//DTD SVG 1.1//EN" "http://www.w3.org/Graphics/SVG/1.1/DTD/svg11.dtd">
<svg version="1.1" id="Layer_1" xmlns="http://www.w3.org/2000/svg" xmlns:xlink="http://www.w3.org/1999/xlink" x="0px" y="0px"
	 width="30px" height="30px" viewBox="0 0 30 30" enable-background="new 0 0 30 30" xml:space="preserve">
<g>
	<g>
		<path fill="#4481BD" d="M29,25.291C29,27.279,27.273,29,25.287,29H4.49C2.5,29,1,27.279,1,25.291V4.494C1,2.505,2.5,1,4.49,1
			h20.797C27.273,1,29,2.505,29,4.494V25.291z"/>
		<path fill="#FFFFFF" d="M25.287,30H4.49C2.015,30,0,27.888,0,25.291V4.494C0,1.932,1.931,0,4.49,0h20.797
			C27.886,0,30,2.016,30,4.494v20.797C30,27.844,27.842,30,25.287,30z M4.49,2C3.047,2,2,3.049,2,4.494v20.797
			C2,26.785,3.117,28,4.49,28h20.797C26.732,28,28,26.734,28,25.291V4.494C28,3.119,26.783,2,25.287,2H4.49z"/>
	</g>
	<rect x="10.996" y="23" fill-rule="evenodd" clip-rule="evenodd" fill="#FFFFFF" width="1" height="1"/>
	<rect x="17.996" y="23" fill-rule="evenodd" clip-rule="evenodd" fill="#FFFFFF" width="1" height="1"/>
	<rect x="18.996" y="23" fill-rule="evenodd" clip-rule="evenodd" fill="#FFFFFF" width="1" height="1"/>
	<rect x="19.996" y="24" fill-rule="evenodd" clip-rule="evenodd" fill="#FFFFFF" width="1" height="1"/>
	<rect x="9.996" y="24" fill-rule="evenodd" clip-rule="evenodd" fill="#FFFFFF" width="1" height="1"/>
	<rect x="8.996" y="24" fill-rule="evenodd" clip-rule="evenodd" fill="#FFFFFF" width="1" height="1"/>
	<rect x="9.996" y="23" fill-rule="evenodd" clip-rule="evenodd" fill="#FFFFFF" width="1" height="1"/>
	<rect x="18.996" y="24" fill-rule="evenodd" clip-rule="evenodd" fill="#FFFFFF" width="1" height="1"/>
	<rect x="17.996" y="24" fill-rule="evenodd" clip-rule="evenodd" fill="#FFFFFF" width="1" height="1"/>
	<rect x="10.996" y="24" fill-rule="evenodd" clip-rule="evenodd" fill="#FFFFFF" width="7" height="1"/>
	<rect x="8.996" y="25" fill-rule="evenodd" clip-rule="evenodd" fill="#FFFFFF" width="1" height="1"/>
	<rect x="9.996" y="25" fill-rule="evenodd" clip-rule="evenodd" fill="#FFFFFF" width="1" height="1"/>
	<rect x="18.996" y="25" fill-rule="evenodd" clip-rule="evenodd" fill="#FFFFFF" width="1" height="1"/>
	<rect x="19.996" y="25" fill-rule="evenodd" clip-rule="evenodd" fill="#FFFFFF" width="1" height="1"/>
	<rect x="10.996" y="4" fill-rule="evenodd" clip-rule="evenodd" fill="#FFFFFF" width="8" height="1"/>
	<rect x="13.996" y="5" fill-rule="evenodd" clip-rule="evenodd" fill="#FFFFFF" width="2" height="2"/>
	<g>
		<rect x="9.996" y="9" opacity="0.5" fill="#FFFFFF" width="1" height="1"/>
		<rect x="18.996" y="9" opacity="0.5" fill="#FFFFFF" width="1" height="1"/>
		<path fill="#FFFFFF" d="M19.99,7H10C9.404,7.654,8.996,8.522,8.996,9.294V20v1h1v1h0.587h8.822h0.591v-1h1v-1V9.294
			C20.996,8.522,20.586,7.654,19.99,7z M12.996,19h-2v-2h2V19z M18.996,19h-2v-2h2V19z M19.996,10v5h-10v-5V9h1h8h1V10z"/>
	</g>
</g>
</svg>
