<?xml version="1.0" encoding="utf-8"?>
<!-- Generator: Adobe Illustrator 22.0.1, SVG Export Plug-In . SVG Version: 6.00 Build 0)  -->
<svg version="1.1" id="Слой_1" xmlns="http://www.w3.org/2000/svg" xmlns:xlink="http://www.w3.org/1999/xlink" x="0px" y="0px"
	 viewBox="0 0 298 150" style="enable-background:new 0 0 298 150;" xml:space="preserve">
<path fill="#F6A602" d="M45.6,3.5C46.2,1.4,48.2,0,50.3,0h242.5c3.3,0,5.7,3.2,4.7,6.4l-45.1,140.1c-0.6,2.1-2.6,3.5-4.7,3.5H5.2
	c-3.3,0-5.7-3.2-4.7-6.4L45.6,3.5z"/>
<g>
	<polygon fill="#FFFFFF" points="132.4,49.8 132.4,49.8 133.8,48.2 	"/>
	<polygon fill="#FFFFFF" points="208.3,106 208.3,25.3 172.6,25.3 172.6,41.7 190.8,41.7 190.8,106 171.2,106 171.2,122.4 223.6,122.4 
		230.4,106 	"/>
	<path fill="#FFFFFF" d="M146.8,39L146.8,39L146.8,39L146.8,39c-8.9-9.3-21.1-13.8-36.3-13.8H67.2l-4.3,16.1h15.5v81h32.1
		c15.2,0,27.4-4.5,36.3-13.6l0,0l0,0c8.8-9.2,13.1-20.8,13.1-34.8S155.6,48.2,146.8,39L146.8,39z M132.4,49.8
		c5.8,5.2,8.9,13.1,8.9,24c0,11.2-3.1,19.1-9,24.4c-6,5.3-13.5,8.1-22.8,8.1H96.2V41.5h13.3C118.9,41.5,126.4,44.4,132.4,49.8
		L132.4,49.8z"/>
</g>
</svg>
