<?xml version="1.0" encoding="utf-8"?>
<!-- Generator: Adobe Illustrator 22.0.1, SVG Export Plug-In . SVG Version: 6.00 Build 0)  -->
<svg version="1.1" id="Слой_1" xmlns="http://www.w3.org/2000/svg" xmlns:xlink="http://www.w3.org/1999/xlink" x="0px" y="0px"
	 viewBox="0 0 298 150" style="enable-background:new 0 0 298 150;" xml:space="preserve">
<path fill="#E74182" d="M45.6,3.5C46.2,1.4,48.2,0,50.3,0h242.5c3.3,0,5.7,3.2,4.7,6.4l-45.1,140.1c-0.6,2.1-2.6,3.5-4.7,3.5H5.2
	c-3.3,0-5.7-3.2-4.7-6.4L45.6,3.5z"/>
<g>
	<path fill="#FFFFFF" d="M141.3,39L141.3,39L141.3,39L141.3,39c-8.9-9.3-21.1-13.8-36.3-13.8H63.3l-4.2,16.1h13.8v81H105
		c15.2,0,27.4-4.5,36.3-13.6l0,0l0,0c8.8-9.2,13.1-20.8,13.1-34.8S150.1,48.2,141.3,39L141.3,39z M136,73.8c0,11.2-3.1,19.1-9,24.4
		c-6,5.3-13.5,8.1-22.8,8.1H90.9V41.5h13.3c9.4,0,17,2.7,22.8,8.2l0,0l0,0l0,0C132.9,55,136,62.9,136,73.8z M139.8,40.5L139.8,40.5
		L139.8,40.5L139.8,40.5z"/>
	<path fill="#FFFFFF" d="M196.2,106l15.4-15.1l0,0c7.2-7.1,12.9-13.4,16.9-19l0,0l0,0c4.1-6,6.2-12.3,6.2-19.1c0-7.4-2.9-14.3-8.6-20.1
		l0,0c-5.8-6.1-14.1-9-24.4-9c-7.2,0-13.9,1.6-20,4.7c-5.8,3.1-10.5,6.3-13.8,9.8l0,0l-1.4,1.5l11.5,11.5l1.5-1.4
		c2.6-2.4,5.8-4.6,9.8-6.6l0,0l0,0l0,0c3.7-2,7.8-3.1,12.4-3.1c4.5,0,7.9,1.2,10.8,3.7c2.7,2.4,4.2,5.6,4.2,9.7
		c0,3.7-1.4,7.6-4.3,11.8l0,0l0,0l0,0c-3,4.2-8.8,10.8-17.5,19.5l0,0l-24.3,24v13.5h63.6l6-16.4C240.2,106,196.2,106,196.2,106z
		 M210.1,89.4L210.1,89.4L210.1,89.4L210.1,89.4z M224.6,34.2L224.6,34.2L224.6,34.2L224.6,34.2z M196.2,86.4L196.2,86.4L196.2,86.4
		L196.2,86.4z"/>
</g>
</svg>
