<?xml version="1.0" encoding="utf-8"?>
<!-- Generator: Adobe Illustrator 16.0.3, SVG Export Plug-In . SVG Version: 6.00 Build 0)  -->
<!DOCTYPE svg PUBLIC "-//W3C//DTD SVG 1.1//EN" "http://www.w3.org/Graphics/SVG/1.1/DTD/svg11.dtd">
<svg version="1.1" id="Layer_1" xmlns="http://www.w3.org/2000/svg" xmlns:xlink="http://www.w3.org/1999/xlink" x="0px" y="0px"
	 width="24px" height="24px" viewBox="0 0 24 24" enable-background="new 0 0 24 24" xml:space="preserve">
<g>
	<circle fill="#FFFFFF" cx="12" cy="12" r="11.5"/>
	<path d="M12.075,24.001l-0.007-1c1.289-0.008,2.548-0.236,3.746-0.679l0.347,0.938C14.854,23.743,13.479,23.992,12.075,24.001z
		 M8.978,23.616c-1.352-0.352-2.623-0.933-3.777-1.728l0.567-0.824c1.059,0.729,2.223,1.262,3.461,1.583L8.978,23.616z
		 M18.918,21.804l-0.576-0.816c1.046-0.739,1.949-1.647,2.684-2.699l0.82,0.572C21.044,20.008,20.06,20.998,18.918,21.804z
		 M2.882,19.802c-0.911-1.064-1.623-2.267-2.114-3.571l0.936-0.354c0.451,1.197,1.103,2.299,1.938,3.274L2.882,19.802z
		 M23.284,16.091l-0.939-0.34C22.779,14.55,23,13.288,23,12c0-0.732-0.072-1.462-0.215-2.172l0.98-0.197
		C23.921,10.405,24,11.202,24,12C24,13.404,23.76,14.781,23.284,16.091z M0.059,13.189C0.02,12.798,0,12.401,0,12
		c0-0.998,0.123-1.99,0.365-2.95l0.97,0.245C1.113,10.175,1,11.084,1,12c0,0.368,0.018,0.732,0.054,1.092L0.059,13.189z
		 M21.862,7.121c-0.568-1.146-1.327-2.178-2.255-3.066l0.691-0.723c1.012,0.969,1.839,2.094,2.46,3.345L21.862,7.121z M2.393,6.638
		L1.52,6.149C2.203,4.93,3.084,3.846,4.142,2.93l0.655,0.756C3.827,4.526,3.019,5.519,2.393,6.638z M17.304,2.36
		c-1.125-0.619-2.337-1.033-3.603-1.229l0.154-0.988c1.381,0.214,2.703,0.666,3.931,1.341L17.304,2.36z M7.183,2.108L6.744,1.209
		c1.257-0.613,2.6-0.998,3.992-1.143l0.104,0.994C9.564,1.194,8.334,1.546,7.183,2.108z"/>
</g>
<polygon points="10,16 10,15 8.262,15 10.142,12.096 12.073,15 12.256,15 14.188,12.096 15.729,15 14,15 14,16 20,16 20,15 
	18.93,15 14.947,5.452 12.165,10.767 9.383,5.494 5.062,15 4,15 4,16 "/>
</svg>
