<?xml version="1.0" encoding="utf-8"?>
<!-- Generator: Adobe Illustrator 16.0.3, SVG Export Plug-In . SVG Version: 6.00 Build 0)  -->
<!DOCTYPE svg PUBLIC "-//W3C//DTD SVG 1.1//EN" "http://www.w3.org/Graphics/SVG/1.1/DTD/svg11.dtd">
<svg version="1.1" id="Layer_1" xmlns="http://www.w3.org/2000/svg" xmlns:xlink="http://www.w3.org/1999/xlink" x="0px" y="0px"
	 width="30px" height="30px" viewBox="0 0 30 30" enable-background="new 0 0 30 30" xml:space="preserve">
<g>
	<g>
		<g>
			<path fill="#666455" d="M15,29.5C7.005,29.5,0.5,22.995,0.5,15S7.005,0.5,15,0.5S29.5,7.005,29.5,15S22.995,29.5,15,29.5z"/>
		</g>
		<g>
			<path fill="#FFFFFF" d="M15,1c7.732,0,14,6.269,14,14s-6.268,14-14,14S1,22.731,1,15S7.268,1,15,1 M15,0C6.729,0,0,6.729,0,15
				s6.729,15,15,15c8.271,0,15-6.729,15-15S23.271,0,15,0L15,0z"/>
		</g>
	</g>
	<g>
		<rect x="8" y="11" fill="#FFFFFF" width="14" height="1"/>
	</g>
	<g>
		<g>
			<path fill="#FFFFFF" d="M9,22h3v-6c0-1.656,1.344-3,3-3s3,1.344,3,3v6h3V11H9V22z"/>
		</g>
		<g>
			<rect x="9" y="8" fill="#FFFFFF" width="12" height="2"/>
		</g>
	</g>
</g>
</svg>
