<?xml version="1.0" encoding="utf-8"?>
<!-- Generator: Adobe Illustrator 16.0.3, SVG Export Plug-In . SVG Version: 6.00 Build 0)  -->
<!DOCTYPE svg PUBLIC "-//W3C//DTD SVG 1.1//EN" "http://www.w3.org/Graphics/SVG/1.1/DTD/svg11.dtd">
<svg version="1.1" id="Layer_1" xmlns="http://www.w3.org/2000/svg" xmlns:xlink="http://www.w3.org/1999/xlink" x="0px" y="0px"
	 width="30px" height="30px" viewBox="0 0 30 30" enable-background="new 0 0 30 30" xml:space="preserve">
<g>
	<g>
		<path fill="#666455" d="M14.996,29.5c-7.995,0-14.5-6.505-14.5-14.5s6.505-14.5,14.5-14.5s14.5,6.505,14.5,14.5
			S22.991,29.5,14.996,29.5z"/>
	</g>
	<g>
		<path fill="#FFFFFF" d="M14.996,1c7.732,0,14,6.269,14,14s-6.268,14-14,14s-14-6.269-14-14S7.264,1,14.996,1 M14.996,0
			c-8.271,0-15,6.729-15,15c0,8.271,6.729,15,15,15c8.271,0,15-6.729,15-15C29.996,6.729,23.268,0,14.996,0L14.996,0z"/>
	</g>
</g>
<g>
	<path fill="#FFFFFF" d="M14.921,21.97c-4.487,0-8.137-3.65-8.137-8.137c0-4.487,3.65-8.138,8.137-8.138
		c4.487,0,8.138,3.65,8.138,8.138C23.059,18.319,19.408,21.97,14.921,21.97z M14.921,7.245c-3.632,0-6.587,2.956-6.587,6.588
		s2.955,6.587,6.587,6.587c3.632,0,6.587-2.955,6.587-6.587S18.553,7.245,14.921,7.245z"/>
</g>
<g>
	<circle fill="#FFFFFF" cx="14.92" cy="13.833" r="1.938"/>
</g>
<g>
	<path fill="#FFFFFF" d="M11.045,21.195c0,0.855-0.554,1.55-1.239,1.55h-0.62c-0.686,0-1.239-0.694-1.239-1.55l0,0
		c0-0.856,0.554-1.551,1.239-1.551h0.62C10.491,19.645,11.045,20.339,11.045,21.195L11.045,21.195z"/>
</g>
<g>
	<path fill="#FFFFFF" d="M21.895,21.195c0,0.855-0.554,1.55-1.238,1.55h-0.62c-0.685,0-1.24-0.694-1.24-1.55l0,0
		c0-0.856,0.556-1.551,1.24-1.551h0.62C21.341,19.645,21.895,20.339,21.895,21.195L21.895,21.195z"/>
</g>
<g>
	<path fill="#FFFFFF" d="M10.271,7.245c0,0.856-0.555,1.55-1.239,1.55H8.412c-0.686,0-1.242-0.694-1.242-1.55l0,0
		c0-0.856,0.557-1.55,1.242-1.55h0.619C9.716,5.695,10.271,6.389,10.271,7.245L10.271,7.245z"/>
</g>
<g>
	<path fill="#FFFFFF" d="M22.671,7.245c0,0.856-0.556,1.55-1.241,1.55h-0.619c-0.686,0-1.239-0.694-1.239-1.55l0,0
		c0-0.856,0.554-1.55,1.239-1.55h0.619C22.115,5.695,22.671,6.389,22.671,7.245L22.671,7.245z"/>
</g>
<g>
	<path fill="#FFFFFF" d="M7.946,13.833c0,0.856-0.556,1.55-1.24,1.55h-0.62c-0.685,0-1.24-0.694-1.24-1.55l0,0
		c0-0.856,0.556-1.55,1.24-1.55h0.62C7.391,12.282,7.946,12.977,7.946,13.833L7.946,13.833z"/>
</g>
<g>
	<path fill="#FFFFFF" d="M24.996,13.833c0,0.856-0.557,1.55-1.239,1.55h-0.622c-0.684,0-1.24-0.694-1.24-1.55l0,0
		c0-0.856,0.557-1.55,1.24-1.55h0.622C24.439,12.282,24.996,12.977,24.996,13.833L24.996,13.833z"/>
</g>
<g>
	<polygon fill="#FFFFFF" points="18.914,25 15.09,14.3 11.268,25 	"/>
</g>
</svg>
