<?xml version="1.0" encoding="utf-8"?>
<!-- Generator: Adobe Illustrator 16.0.3, SVG Export Plug-In . SVG Version: 6.00 Build 0)  -->
<!DOCTYPE svg PUBLIC "-//W3C//DTD SVG 1.1//EN" "http://www.w3.org/Graphics/SVG/1.1/DTD/svg11.dtd">
<svg version="1.1" id="Layer_1" xmlns="http://www.w3.org/2000/svg" xmlns:xlink="http://www.w3.org/1999/xlink" x="0px" y="0px"
	 width="30px" height="30px" viewBox="0 0 30 30" enable-background="new 0 0 30 30" xml:space="preserve">
<g>
	<g>
		<g>
			<path fill="#666455" d="M15,29.5C7.005,29.5,0.5,22.995,0.5,15S7.005,0.5,15,0.5S29.5,7.005,29.5,15S22.995,29.5,15,29.5z"/>
		</g>
		<g>
			<path fill="#FFFFFF" d="M15,1c7.732,0,14,6.269,14,14s-6.268,14-14,14S1,22.731,1,15S7.268,1,15,1 M15,0C6.729,0,0,6.729,0,15
				s6.729,15,15,15c8.271,0,15-6.729,15-15S23.271,0,15,0L15,0z"/>
		</g>
	</g>
	<g>
		<path fill="#FFFFFF" d="M15.496,18h-0.992c0-5.119-2.736-7.504-4.586-7.504c-0.95,0-1.846,0.49-2.523,1.381l-0.79-0.602
			c0.87-1.143,2.046-1.771,3.313-1.771C12.66,9.504,15.496,12.682,15.496,18z"/>
	</g>
	<g>
		<path fill="#FFFFFF" d="M15.496,18h-0.992c0-5.318,2.838-8.496,5.58-8.496c1.265,0,2.441,0.629,3.312,1.771l-0.789,0.602
			c-0.68-0.891-1.576-1.381-2.523-1.381C18.234,10.496,15.496,12.881,15.496,18z"/>
	</g>
	<g>
		<rect x="14.504" y="7" fill="#FFFFFF" width="0.992" height="8"/>
	</g>
	<g>
		<rect x="8" y="20" fill="#FFFFFF" width="14" height="2"/>
	</g>
	<g>
		<rect x="11" y="18" fill="#FFFFFF" width="8" height="2"/>
	</g>
</g>
</svg>
