<?xml version="1.0" encoding="utf-8"?>
<!-- Generator: Adobe Illustrator 16.0.3, SVG Export Plug-In . SVG Version: 6.00 Build 0)  -->
<!DOCTYPE svg PUBLIC "-//W3C//DTD SVG 1.1//EN" "http://www.w3.org/Graphics/SVG/1.1/DTD/svg11.dtd">
<svg version="1.1" id="Layer_1" xmlns="http://www.w3.org/2000/svg" xmlns:xlink="http://www.w3.org/1999/xlink" x="0px" y="0px"
	 width="30px" height="30px" viewBox="0 0 30 30" enable-background="new 0 0 30 30" xml:space="preserve">
<g>
	<g>
		<g>
			<path fill="#666455" d="M15,29.5C7.005,29.5,0.5,22.995,0.5,15S7.005,0.5,15,0.5S29.5,7.005,29.5,15S22.995,29.5,15,29.5z"/>
		</g>
		<g>
			<path fill="#FFFFFF" d="M15,1c7.732,0,14,6.269,14,14s-6.268,14-14,14C7.267,29,1,22.731,1,15S7.267,1,15,1 M15,0
				C6.729,0,0,6.729,0,15c0,8.271,6.729,15,15,15s15-6.729,15-15C30,6.729,23.271,0,15,0L15,0z"/>
		</g>
	</g>
	<g>
		<rect x="11" y="22" fill-rule="evenodd" clip-rule="evenodd" fill="#FFFFFF" width="1" height="1"/>
	</g>
	<g>
		<rect x="19.004" y="22" fill-rule="evenodd" clip-rule="evenodd" fill="#FFFFFF" width="1" height="1"/>
	</g>
	<g>
		<rect x="18.004" y="22" fill-rule="evenodd" clip-rule="evenodd" fill="#FFFFFF" width="1" height="1"/>
	</g>
	<g>
		<rect x="20" y="23" fill-rule="evenodd" clip-rule="evenodd" fill="#FFFFFF" width="1" height="1"/>
	</g>
	<g>
		<rect x="10" y="23" fill-rule="evenodd" clip-rule="evenodd" fill="#FFFFFF" width="1" height="1"/>
	</g>
	<g>
		<rect x="9.004" y="23" fill-rule="evenodd" clip-rule="evenodd" fill="#FFFFFF" width="1" height="1"/>
	</g>
	<g>
		<rect x="10.004" y="22" fill-rule="evenodd" clip-rule="evenodd" fill="#FFFFFF" width="1" height="1"/>
	</g>
	<g>
		<rect x="19" y="23" fill-rule="evenodd" clip-rule="evenodd" fill="#FFFFFF" width="1" height="1"/>
	</g>
	<g>
		<rect x="18" y="23" fill-rule="evenodd" clip-rule="evenodd" fill="#FFFFFF" width="1" height="1"/>
	</g>
	<g>
		<rect x="11" y="23" fill-rule="evenodd" clip-rule="evenodd" fill="#FFFFFF" width="7" height="1"/>
	</g>
	<g>
		<rect x="9.004" y="24" fill-rule="evenodd" clip-rule="evenodd" fill="#FFFFFF" width="1" height="1"/>
	</g>
	<g>
		<rect x="10" y="24" fill-rule="evenodd" clip-rule="evenodd" fill="#FFFFFF" width="1" height="1"/>
	</g>
	<g>
		<rect x="19.004" y="24" fill-rule="evenodd" clip-rule="evenodd" fill="#FFFFFF" width="1" height="1"/>
	</g>
	<g>
		<rect x="20" y="24" fill-rule="evenodd" clip-rule="evenodd" fill="#FFFFFF" width="1" height="1"/>
	</g>
	<g>
		<path fill-rule="evenodd" clip-rule="evenodd" fill="#FFFFFF" d="M18.088,6H18V5h-6v1h-0.092C10.447,6,9,7.833,9,9.294V19
			l0.91,0.235L11,20.117V21h8v-0.883l1.088-0.882L21,19V9.294C21,7.833,19.549,6,18.088,6z M13,18h-2v-2h2V18z M14,14h-4v-4V9h1h3
			V14z M13,8V7h1h2h1v1h-1h-2H13z M19,18h-2v-2h2V18z M20,10v4h-4V9h3h1V10z"/>
	</g>
	<g opacity="0.5">
		<rect x="10" y="9" fill-rule="evenodd" clip-rule="evenodd" fill="#FFFFFF" width="1" height="1"/>
	</g>
	<g opacity="0.5">
		<rect x="19" y="9" fill-rule="evenodd" clip-rule="evenodd" fill="#FFFFFF" width="1" height="1"/>
	</g>
</g>
</svg>
