<?xml version="1.0" encoding="utf-8"?>
<!-- Generator: Adobe Illustrator 16.0.3, SVG Export Plug-In . SVG Version: 6.00 Build 0)  -->
<!DOCTYPE svg PUBLIC "-//W3C//DTD SVG 1.1//EN" "http://www.w3.org/Graphics/SVG/1.1/DTD/svg11.dtd">
<svg version="1.1" id="Layer_1" xmlns="http://www.w3.org/2000/svg" xmlns:xlink="http://www.w3.org/1999/xlink" x="0px" y="0px"
	 width="30px" height="30px" viewBox="0 0 30 30" enable-background="new 0 0 30 30" xml:space="preserve">
<g>
	<g>
		<path fill="#666455" d="M14.996,29.5c-7.995,0-14.5-6.505-14.5-14.5s6.505-14.5,14.5-14.5s14.5,6.505,14.5,14.5
			S22.991,29.5,14.996,29.5z"/>
	</g>
	<g>
		<path fill="#FFFFFF" d="M14.996,1c7.732,0,14,6.269,14,14s-6.268,14-14,14s-14-6.269-14-14S7.264,1,14.996,1 M14.996,0
			c-8.271,0-15,6.729-15,15c0,8.271,6.729,15,15,15c8.271,0,15-6.729,15-15C29.996,6.729,23.268,0,14.996,0L14.996,0z"/>
	</g>
</g>
<g>
	<path fill="#FFFFFF" d="M8.996,8l0.924,7.481c0,2.496,1.861,4.519,4.154,4.519h1.844c2.295,0,4.154-1.867,4.154-4.364L20.996,8
		H8.996z"/>
</g>
<g>
	<path fill="#FFFFFF" d="M20.496,17.715c-1.772,0-3.215-1.442-3.215-3.215s1.442-3.214,3.215-3.214s3.215,1.442,3.215,3.214
		S22.269,17.715,20.496,17.715z M20.496,12.714c-0.984,0-1.785,0.801-1.785,1.786s0.801,1.785,1.785,1.785s1.785-0.8,1.785-1.785
		S21.48,12.714,20.496,12.714z"/>
</g>
<g>
	<rect x="7.996" y="21.029" fill="#FFFFFF" width="14" height="0.941"/>
</g>
<g>
	<rect x="8.93" y="22" fill="#FFFFFF" width="12.133" height="0.941"/>
</g>
</svg>
