<?xml version="1.0" encoding="utf-8"?>
<!-- Generator: Adobe Illustrator 16.0.3, SVG Export Plug-In . SVG Version: 6.00 Build 0)  -->
<!DOCTYPE svg PUBLIC "-//W3C//DTD SVG 1.1//EN" "http://www.w3.org/Graphics/SVG/1.1/DTD/svg11.dtd">
<svg version="1.1" id="Layer_1" xmlns="http://www.w3.org/2000/svg" xmlns:xlink="http://www.w3.org/1999/xlink" x="0px" y="0px"
	 width="30px" height="30px" viewBox="0 0 30 30" enable-background="new 0 0 30 30" xml:space="preserve">
<g>
	<g>
		<path fill="#666455" d="M15,29.5C7.005,29.5,0.5,22.995,0.5,15S7.005,0.5,15,0.5S29.5,7.005,29.5,15S22.995,29.5,15,29.5z"/>
	</g>
	<g>
		<path fill="#FFFFFF" d="M15,1c7.732,0,14,6.269,14,14c0,7.73-6.268,14-14,14C7.267,29,1,22.73,1,15C1,7.269,7.267,1,15,1 M15,0
			C6.729,0,0,6.729,0,15c0,8.271,6.729,15,15,15c8.271,0,15-6.729,15-15C30,6.729,23.271,0,15,0L15,0z"/>
	</g>
</g>
<g>
	<path fill="#FFFFFF" d="M18.879,13.848c-2.521,0-4.561-1.688-4.561-3.772s2.04-3.773,4.561-3.773c0.076,0,0.15,0.006,0.223,0.009
		c-0.766-0.359-1.646-0.568-2.589-0.568c-2.894,0-5.237,1.939-5.237,4.332c0,2.392,2.344,4.332,5.237,4.332
		c0.943,0,1.823-0.209,2.589-0.568C19.029,13.842,18.955,13.848,18.879,13.848z"/>
</g>
<g>
	<path fill="#FFFFFF" d="M20.584,24c0.072-1.031-0.227-3.842-5.288-5.4c-5.062,1.56-5.361,4.369-5.286,5.4H20.584z"/>
</g>
</svg>
