<?xml version="1.0" encoding="utf-8"?>
<!-- Generator: Adobe Illustrator 16.0.3, SVG Export Plug-In . SVG Version: 6.00 Build 0)  -->
<!DOCTYPE svg PUBLIC "-//W3C//DTD SVG 1.1//EN" "http://www.w3.org/Graphics/SVG/1.1/DTD/svg11.dtd">
<svg version="1.1" id="Layer_1" xmlns="http://www.w3.org/2000/svg" xmlns:xlink="http://www.w3.org/1999/xlink" x="0px" y="0px"
	 width="30px" height="30px" viewBox="0 0 30 30" enable-background="new 0 0 30 30" xml:space="preserve">
<g>
	<g>
		<g>
			<path fill="#666455" d="M15,29.5C7.005,29.5,0.5,22.995,0.5,15S7.005,0.5,15,0.5S29.5,7.005,29.5,15S22.995,29.5,15,29.5z"/>
		</g>
		<g>
			<path fill="#FFFFFF" d="M15,1c7.732,0,14,6.269,14,14s-6.268,14-14,14S1,22.731,1,15S7.268,1,15,1 M15,0C6.729,0,0,6.729,0,15
				s6.729,15,15,15c8.271,0,15-6.729,15-15S23.271,0,15,0L15,0z"/>
		</g>
	</g>
	<g>
		<path fill="#FFFFFF" d="M22.75,17h-1.5c0-3.446-2.804-6.25-6.25-6.25S8.75,13.554,8.75,17h-1.5c0-4.273,3.477-7.75,7.75-7.75
			S22.75,12.727,22.75,17z"/>
	</g>
	<g>
		<rect x="6" y="11" fill="#FFFFFF" width="2" height="10"/>
	</g>
	<g>
		<rect x="22" y="11" fill="#FFFFFF" width="2" height="10"/>
	</g>
	<g>
		<rect x="3" y="15" fill="#FFFFFF" width="24" height="2"/>
	</g>
</g>
</svg>
