<?xml version="1.0" encoding="utf-8"?>
<!-- Generator: Adobe Illustrator 16.0.3, SVG Export Plug-In . SVG Version: 6.00 Build 0)  -->
<!DOCTYPE svg PUBLIC "-//W3C//DTD SVG 1.1//EN" "http://www.w3.org/Graphics/SVG/1.1/DTD/svg11.dtd">
<svg version="1.1" id="Layer_1" xmlns="http://www.w3.org/2000/svg" xmlns:xlink="http://www.w3.org/1999/xlink" x="0px" y="0px"
	 width="30px" height="30px" viewBox="0 0 30 30" enable-background="new 0 0 30 30" xml:space="preserve">
<g>
	<g>
		<g>
			<path fill="#666455" d="M15,29.5C7.005,29.5,0.5,22.995,0.5,15S7.005,0.5,15,0.5S29.5,7.005,29.5,15S22.995,29.5,15,29.5z"/>
		</g>
		<g>
			<path fill="#FFFFFF" d="M15,1c7.733,0,14,6.269,14,14s-6.267,14-14,14C7.269,29,1,22.731,1,15S7.269,1,15,1 M15,0
				C6.729,0,0,6.729,0,15s6.729,15,15,15s15-6.729,15-15S23.271,0,15,0L15,0z"/>
		</g>
	</g>
	<g>
		<rect x="7" y="15" fill="#FFFFFF" width="16" height="2"/>
	</g>
	<g>
		<rect x="7" y="16" fill="#FFFFFF" width="2" height="6"/>
	</g>
	<g>
		<rect x="22" y="9" fill="#FFFFFF" width="2" height="13"/>
	</g>
	<g>
		<circle fill="#FFFFFF" cx="18.637" cy="12" r="2"/>
	</g>
	<g>
		<rect x="13.637" y="13" fill="#FFFFFF" width="5.168" height="1"/>
	</g>
	<g>
		<path fill="#FFFFFF" d="M15.496,11h-1.001h-0.733h-3.267c-1.862,0-3.412,1.277-3.858,3h8.858v-0.016h0.001V11z"/>
	</g>
</g>
</svg>
