<?xml version="1.0" encoding="utf-8"?>
<!-- Generator: Adobe Illustrator 16.0.3, SVG Export Plug-In . SVG Version: 6.00 Build 0)  -->
<!DOCTYPE svg PUBLIC "-//W3C//DTD SVG 1.1//EN" "http://www.w3.org/Graphics/SVG/1.1/DTD/svg11.dtd">
<svg version="1.1" id="Layer_1" xmlns="http://www.w3.org/2000/svg" xmlns:xlink="http://www.w3.org/1999/xlink" x="0px" y="0px"
	 width="30px" height="30px" viewBox="0 0 30 30" enable-background="new 0 0 30 30" xml:space="preserve">
<g>
	<g>
		<g>
			<path fill="#666455" d="M15,29.5C7.005,29.5,0.5,22.995,0.5,15S7.005,0.5,15,0.5S29.5,7.005,29.5,15S22.995,29.5,15,29.5z"/>
		</g>
		<g>
			<path fill="#FFFFFF" d="M15,1c7.731,0,14,6.269,14,14s-6.269,14-14,14C7.268,29,1,22.731,1,15S7.268,1,15,1 M15,0
				C6.729,0,0,6.729,0,15s6.729,15,15,15c8.271,0,15-6.729,15-15S23.271,0,15,0L15,0z"/>
		</g>
	</g>
	<polygon fill="#FFFFFF" points="21.625,16 20.062,12 18.5,16 18,16 18,11 15.5,5.703 13,11 13,16 12.5,16 10.938,12 9.375,16 9,16 
		9,23 14,23 14,20 15.5,20 17,20 17,23 22,23 22,16 	"/>
</g>
</svg>
