<?xml version="1.0" encoding="utf-8"?>
<!-- Generator: Adobe Illustrator 16.0.3, SVG Export Plug-In . SVG Version: 6.00 Build 0)  -->
<!DOCTYPE svg PUBLIC "-//W3C//DTD SVG 1.1//EN" "http://www.w3.org/Graphics/SVG/1.1/DTD/svg11.dtd">
<svg version="1.1" id="Layer_1" xmlns="http://www.w3.org/2000/svg" xmlns:xlink="http://www.w3.org/1999/xlink" x="0px" y="0px"
	 width="30px" height="30px" viewBox="0 0 30 30" enable-background="new 0 0 30 30" xml:space="preserve">
<g>
	<g>
		<path fill="#369972" d="M14.996,29.5c-7.995,0-14.5-6.505-14.5-14.5s6.505-14.5,14.5-14.5s14.5,6.505,14.5,14.5
			S22.991,29.5,14.996,29.5z"/>
	</g>
	<g>
		<g>
			<path fill="#FFFFFF" d="M14.996,1c7.732,0,14,6.269,14,14s-6.268,14-14,14c-7.733,0-14-6.269-14-14S7.263,1,14.996,1 M14.996,0
				c-8.271,0-15,6.729-15,15c0,8.271,6.729,15,15,15c8.271,0,15-6.729,15-15C29.996,6.729,23.268,0,14.996,0L14.996,0z"/>
		</g>
	</g>
</g>
<g>
	<rect x="10.996" y="23" fill="#FFFFFF" width="8" height="1"/>
</g>
<g>
	<rect x="14" y="13" fill="#FFFFFF" width="2" height="11"/>
</g>
<polygon fill="#FFFFFF" points="14.718,19.33 10.439,13.916 11.275,13.239 15.554,18.653 "/>
<g>
	<line fill="#FFFFFF" x1="14.996" y1="20" x2="17.996" y2="18"/>
	
		<rect x="15.996" y="17.197" transform="matrix(0.5547 0.8321 -0.8321 0.5547 23.1547 -5.2649)" fill="#FFFFFF" width="1" height="3.606"/>
</g>
<g>
	<circle fill="#FFFFFF" cx="10.496" cy="12.5" r="2.5"/>
</g>
<g>
	<circle fill="#FFFFFF" cx="17.996" cy="12" r="4"/>
</g>
<g>
	<circle fill="#FFFFFF" cx="13.496" cy="9.5" r="3.5"/>
</g>
<g>
	<rect x="11.996" y="12" fill="#FFFFFF" width="3" height="2"/>
</g>
</svg>
