<?xml version="1.0" encoding="utf-8"?>
<!-- Generator: Adobe Illustrator 16.0.3, SVG Export Plug-In . SVG Version: 6.00 Build 0)  -->
<!DOCTYPE svg PUBLIC "-//W3C//DTD SVG 1.1//EN" "http://www.w3.org/Graphics/SVG/1.1/DTD/svg11.dtd">
<svg version="1.1" id="Layer_1" xmlns="http://www.w3.org/2000/svg" xmlns:xlink="http://www.w3.org/1999/xlink" x="0px" y="0px"
	 width="30px" height="30px" viewBox="0 0 30 30" enable-background="new 0 0 30 30" xml:space="preserve">
<g>
	<g>
		<g>
			<path fill="#666455" d="M14.996,29.5c-7.995,0-14.5-6.505-14.5-14.5s6.505-14.5,14.5-14.5s14.5,6.505,14.5,14.5
				S22.991,29.5,14.996,29.5z"/>
		</g>
		<g>
			<path fill="#FFFFFF" d="M14.996,1c7.732,0,14,6.269,14,14s-6.268,14-14,14c-7.733,0-14-6.269-14-14S7.263,1,14.996,1 M14.996,0
				c-8.271,0-15,6.729-15,15c0,8.271,6.729,15,15,15s15-6.729,15-15C29.996,6.729,23.268,0,14.996,0L14.996,0z"/>
		</g>
	</g>
	<g>
		<rect x="14.319" y="5.806" fill="#FFFFFF" width="1.552" height="9.3"/>
	</g>
	<g>
		<rect x="11.22" y="8.905" fill="#FFFFFF" width="7.75" height="1.55"/>
	</g>
	<g>
		<path fill="#FFFFFF" d="M18.371,18.456c-0.739-0.692-2.318-1.733-2.875-2.456h-1c-0.557,0.723-2.137,1.764-2.875,2.456
			c-2.32,2.178-0.398,4.331,0.375,5.544h2.5h1h2.5C18.77,22.787,20.691,20.634,18.371,18.456z"/>
	</g>
</g>
</svg>
