<?xml version="1.0" encoding="utf-8"?>
<!-- Generator: Adobe Illustrator 16.0.3, SVG Export Plug-In . SVG Version: 6.00 Build 0)  -->
<!DOCTYPE svg PUBLIC "-//W3C//DTD SVG 1.1//EN" "http://www.w3.org/Graphics/SVG/1.1/DTD/svg11.dtd">
<svg version="1.1" id="Layer_1" xmlns="http://www.w3.org/2000/svg" xmlns:xlink="http://www.w3.org/1999/xlink" x="0px" y="0px"
	 width="30px" height="30px" viewBox="0 0 30 30" enable-background="new 0 0 30 30" xml:space="preserve">
<g>
	<g>
		<g>
			<path fill="#666455" d="M14.996,29.5c-7.995,0-14.5-6.505-14.5-14.5s6.505-14.5,14.5-14.5s14.5,6.505,14.5,14.5
				S22.991,29.5,14.996,29.5z"/>
		</g>
		<g>
			<path fill="#FFFFFF" d="M14.996,1c7.732,0,14,6.269,14,14s-6.268,14-14,14s-14-6.269-14-14S7.264,1,14.996,1 M14.996,0
				c-8.271,0-15,6.729-15,15c0,8.271,6.729,15,15,15c8.271,0,15-6.729,15-15C29.996,6.729,23.268,0,14.996,0L14.996,0z"/>
		</g>
	</g>
	<g>
		<path fill="#FFFFFF" d="M17.996,13v5h3l-1,6h2c0.066-0.292,0-17,0-17S17.996,9,17.996,13z"/>
	</g>
	<g>
		<polygon fill="#FFFFFF" points="10.996,14 9.996,24 12.996,24 11.996,14 		"/>
	</g>
	<g>
		<g>
			<path fill="#FFFFFF" d="M12.518,14.818h-2.186c-1.332,0-2.336-1.121-2.336-2.607V7.524c0-0.276,0.224-0.5,0.5-0.5
				c0.275,0,0.5,0.224,0.5,0.5v4.687c0,0.931,0.562,1.607,1.336,1.607h2.186c0.814,0,1.479-0.731,1.479-1.631V7.5
				c0-0.276,0.224-0.5,0.5-0.5c0.275,0,0.5,0.224,0.5,0.5v4.687C14.996,13.638,13.884,14.818,12.518,14.818z"/>
		</g>
	</g>
	<g>
		<path fill="#FFFFFF" d="M11.996,14V7.5c0-0.276-0.225-0.5-0.5-0.5c-0.276,0-0.5,0.224-0.5,0.5V14H11.996z"/>
	</g>
</g>
</svg>
