<?xml version="1.0" encoding="utf-8"?>
<!-- Generator: Adobe Illustrator 16.0.3, SVG Export Plug-In . SVG Version: 6.00 Build 0)  -->
<!DOCTYPE svg PUBLIC "-//W3C//DTD SVG 1.1//EN" "http://www.w3.org/Graphics/SVG/1.1/DTD/svg11.dtd">
<svg version="1.1" id="Layer_1" xmlns="http://www.w3.org/2000/svg" xmlns:xlink="http://www.w3.org/1999/xlink" x="0px" y="0px"
	 width="30px" height="30px" viewBox="0 0 30 30" enable-background="new 0 0 30 30" xml:space="preserve">
<g>
	<g>
		<path fill="#666556" d="M14.996,29.5c-7.995,0-14.5-6.505-14.5-14.5s6.505-14.5,14.5-14.5s14.5,6.505,14.5,14.5
			S22.991,29.5,14.996,29.5z"/>
	</g>
	<g>
		<path fill="#FFFFFF" d="M14.996,1c7.732,0,14,6.269,14,14s-6.268,14-14,14s-14-6.269-14-14S7.264,1,14.996,1 M14.996,0
			c-8.271,0-15,6.729-15,15c0,8.271,6.729,15,15,15c8.271,0,15-6.729,15-15C29.996,6.729,23.268,0,14.996,0L14.996,0z"/>
	</g>
</g>
<g>
	<path fill="#FFFFFF" d="M14.819,9.129c-2.438,0-4.954-0.692-6.823-1.812v9.171C9.283,20.383,12.146,23,14.858,23
		c2.917,0,5.933-3.03,7.138-7.423V7.064C20.09,8.333,17.434,9.129,14.819,9.129z"/>
</g>
<g>
	<path fill="#666556" d="M17.521,12.456c-0.715,0-1.37-0.171-1.875-0.456c0.228,0.824,0.979,1.429,1.875,1.429
		c0.896,0,1.647-0.605,1.874-1.429C18.887,12.284,18.234,12.456,17.521,12.456z"/>
</g>
<g>
	<path fill="#666556" d="M14.869,17.939v2.074c1.441-0.424,2.574-1.562,2.976-3.014C17.006,17.469,15.987,17.799,14.869,17.939z"/>
</g>
<g>
	<path fill="#666556" d="M12.22,12.456c0.714,0,1.369-0.171,1.874-0.456c-0.227,0.824-0.979,1.429-1.874,1.429
		c-0.896,0-1.648-0.605-1.875-1.429C10.85,12.284,11.505,12.456,12.22,12.456z"/>
</g>
<g>
	<path fill="#666556" d="M14.869,17.939v2.074c-1.441-0.424-2.576-1.562-2.977-3.014C12.73,17.469,13.75,17.799,14.869,17.939z"/>
</g>
</svg>
