<?xml version="1.0" encoding="utf-8"?>
<!-- Generator: Adobe Illustrator 16.0.3, SVG Export Plug-In . SVG Version: 6.00 Build 0)  -->
<!DOCTYPE svg PUBLIC "-//W3C//DTD SVG 1.1//EN" "http://www.w3.org/Graphics/SVG/1.1/DTD/svg11.dtd">
<svg version="1.1" id="Layer_1" xmlns="http://www.w3.org/2000/svg" xmlns:xlink="http://www.w3.org/1999/xlink" x="0px" y="0px"
	 width="30px" height="30px" viewBox="0 0 30 30" enable-background="new 0 0 30 30" xml:space="preserve">
<g>
	<g>
		<path fill="#666455" d="M14.996,29.5c-7.995,0-14.5-6.505-14.5-14.5s6.505-14.5,14.5-14.5s14.5,6.505,14.5,14.5
			S22.991,29.5,14.996,29.5z"/>
	</g>
	<g>
		<path fill="#FFFFFF" d="M14.996,1c7.732,0,14,6.269,14,14s-6.268,14-14,14c-7.733,0-14-6.269-14-14S7.263,1,14.996,1 M14.996,0
			c-8.271,0-15,6.729-15,15c0,8.271,6.729,15,15,15s15-6.729,15-15C29.996,6.729,23.268,0,14.996,0L14.996,0z"/>
	</g>
</g>
<g>
	<rect x="7" y="9" fill="#FFFFFF" width="16" height="12"/>
</g>
<g>
	<rect x="10" y="11" fill="#666455" width="10" height="8"/>
</g>
<g>
	<rect x="4.996" y="14.625" transform="matrix(0.8 0.6 -0.6 0.8 11.9992 -5.9977)" fill="#666455" width="20" height="0.749"/>
</g>
<g>
	
		<rect x="14.621" y="5" transform="matrix(0.5996 0.8003 -0.8003 0.5996 18.0094 -5.9953)" fill="#666455" width="0.749" height="20"/>
</g>
</svg>
